<svg id="Capa_1" enable-background="new 0 0 512 512" height="512" viewBox="0 0 512 512" width="512" xmlns="http://www.w3.org/2000/svg"><g><path d="m231.114 395.746c-4.143 0-7.5 3.358-7.5 7.5v16.499c0 4.142 3.357 7.5 7.5 7.5s7.5-3.358 7.5-7.5v-16.499c0-4.143-3.357-7.5-7.5-7.5z"/><path d="m281.408 395.746c-4.143 0-7.5 3.358-7.5 7.5v16.499c0 4.142 3.357 7.5 7.5 7.5s7.5-3.358 7.5-7.5v-16.499c0-4.143-3.357-7.5-7.5-7.5z"/><path d="m131.683 83.573h-21.422v-37.129c0-4.142-3.357-7.5-7.5-7.5-4.142 0-7.5 3.358-7.5 7.5v44.628c0 4.142 3.358 7.5 7.5 7.5h28.922c4.143 0 7.5-3.358 7.5-7.5 0-4.141-3.358-7.499-7.5-7.499z"/><path d="m488.449 121.488h-57.698v-51.56c0-14.871-12.098-26.968-26.969-26.968h-232.581v-22.51c0-10.708-8.712-19.42-19.42-19.42h-76.387c-10.708 0-19.42 8.712-19.42 19.42v101.039h-32.423c-12.987-.001-23.551 10.564-23.551 23.55s10.564 23.551 23.551 23.551h12.162v178.825c0 4.142 3.357 7.5 7.5 7.5s7.5-3.358 7.5-7.5v-178.825h410.574v249.19h-109.545v-91.722c0-4.142-3.357-7.5-7.5-7.5h-88.242-88.242c-4.143 0-7.5 3.358-7.5 7.5v91.722h-109.545v-40.365c0-4.142-3.357-7.5-7.5-7.5s-7.5 3.358-7.5 7.5v126.056c0 4.142 3.357 7.5 7.5 7.5h425.574c4.143 0 7.5-3.358 7.5-7.5v-334.881h12.162c12.986 0 23.551-10.565 23.551-23.551s-10.565-23.551-23.551-23.551zm-437.736 311.292h109.545v63.191h-109.545zm124.545-99.221h73.242v162.413h-73.242zm88.242 162.412v-162.412h73.242v162.413h-73.242zm88.242 0v-63.191h109.545v63.191zm-280.768-475.522c0-2.438 1.982-4.42 4.42-4.42h76.388c2.438 0 4.42 1.983 4.42 4.42v30.01 71.029h-85.228zm417.475 133.141h-464.898c-4.715 0-8.551-3.836-8.551-8.551s3.836-8.551 8.551-8.551h206.399c4.143 0 7.5-3.358 7.5-7.5s-3.357-7.5-7.5-7.5h-58.749v-24.264h198.831c4.143 0 7.5-3.358 7.5-7.5s-3.357-7.5-7.5-7.5h-198.831v-24.265h232.581c6.6 0 11.969 5.369 11.969 11.968v51.561h-155.801c-4.143 0-7.5 3.358-7.5 7.5s3.357 7.5 7.5 7.5h228.499c4.715 0 8.551 3.836 8.551 8.551s-3.836 8.551-8.551 8.551z"/><path d="m66.097 393.648c0 4.142 3.357 7.5 7.5 7.5h58.329c4.143 0 7.5-3.358 7.5-7.5v-81.983c0-4.142-3.357-7.5-7.5-7.5h-58.329c-4.143 0-7.5 3.358-7.5 7.5zm15-74.483h43.329v66.983h-43.329z"/><path d="m73.597 284.04h58.329c4.143 0 7.5-3.358 7.5-7.5v-81.983c0-4.142-3.357-7.5-7.5-7.5h-58.329c-4.143 0-7.5 3.358-7.5 7.5v81.983c0 4.142 3.357 7.5 7.5 7.5zm7.5-81.983h43.329v66.983h-43.329z"/><path d="m368.956 393.648c0 4.142 3.357 7.5 7.5 7.5h58.328c4.143 0 7.5-3.358 7.5-7.5v-81.983c0-4.142-3.357-7.5-7.5-7.5h-58.328c-4.143 0-7.5 3.358-7.5 7.5zm15-74.483h43.328v66.983h-43.328z"/><path d="m376.456 284.04h58.328c4.143 0 7.5-3.358 7.5-7.5v-81.983c0-4.142-3.357-7.5-7.5-7.5h-58.328c-4.143 0-7.5 3.358-7.5 7.5v81.983c0 4.142 3.358 7.5 7.5 7.5zm7.5-81.983h43.328v66.983h-43.328z"/><path d="m331.949 284.04c4.143 0 7.5-3.358 7.5-7.5v-81.983c0-4.142-3.357-7.5-7.5-7.5h-58.328c-4.143 0-7.5 3.358-7.5 7.5v81.983c0 4.142 3.357 7.5 7.5 7.5zm-50.828-81.983h43.328v66.983h-43.328z"/><path d="m229.114 284.04c4.143 0 7.5-3.358 7.5-7.5v-81.983c0-4.142-3.357-7.5-7.5-7.5h-58.328c-4.143 0-7.5 3.358-7.5 7.5v81.983c0 4.142 3.357 7.5 7.5 7.5zm-50.828-81.983h43.328v66.983h-43.328z"/></g></svg>